<?xml version="1.0" encoding="UTF-8" standalone="no"?>
<!DOCTYPE svg PUBLIC "-//W3C//DTD SVG 1.1//EN"
 "http://www.w3.org/Graphics/SVG/1.1/DTD/svg11.dtd">
<!-- Generated by graphviz version 2.43.0 (0)
 -->
<!-- Title: PatternLanguage Pages: 1 -->
<svg width="220pt" height="256pt"
 viewBox="0.00 0.00 220.00 256.00" xmlns="http://www.w3.org/2000/svg" xmlns:xlink="http://www.w3.org/1999/xlink">
<g id="graph0" class="graph" transform="scale(1 1) rotate(0) translate(4 252)">
<title>PatternLanguage</title>
<polygon fill="white" stroke="transparent" points="-4,4 -4,-252 216,-252 216,4 -4,4"/>
<g id="clust1" class="cluster">
<title>cluster_1</title>
<polygon fill="none" stroke="#8b0000" stroke-dasharray="5,2" points="20,-168 20,-240 192,-240 192,-168 20,-168"/>
<text text-anchor="middle" x="106" y="-227.2" font-family="Helvetica,sans-Serif" font-size="11.00">Organisational Philosophy</text>
</g>
<g id="clust2" class="cluster">
<title>cluster_4</title>
<polygon fill="none" stroke="#668800" stroke-dasharray="5,2" points="8,-88 8,-160 204,-160 204,-88 8,-88"/>
<text text-anchor="middle" x="106" y="-147.2" font-family="Helvetica,sans-Serif" font-size="11.00">Development Practices</text>
</g>
<g id="clust3" class="cluster">
<title>cluster_5</title>
<polygon fill="none" stroke="#006644" stroke-dasharray="5,2" points="13,-8 13,-80 199,-80 199,-8 13,-8"/>
<text text-anchor="middle" x="106" y="-67.2" font-family="Helvetica,sans-Serif" font-size="11.00">Delivery Pipeline</text>
</g>
<!-- p1 -->
<g id="node1" class="node">
<title>p1</title>
<path fill="#8b0000" fill-opacity="0.200000" stroke="#8b0000" d="M171.5,-212C171.5,-212 40.5,-212 40.5,-212 34.5,-212 28.5,-206 28.5,-200 28.5,-200 28.5,-188 28.5,-188 28.5,-182 34.5,-176 40.5,-176 40.5,-176 171.5,-176 171.5,-176 177.5,-176 183.5,-182 183.5,-188 183.5,-188 183.5,-200 183.5,-200 183.5,-206 177.5,-212 171.5,-212"/>
<text text-anchor="middle" x="106" y="-191.5" font-family="Helvetica,sans-Serif" font-size="10.00">1. Generative Culture ** [AI]</text>
</g>
<!-- p24 -->
<g id="node2" class="node">
<title>p24</title>
<path fill="#668800" fill-opacity="0.200000" stroke="#668800" d="M183.5,-132C183.5,-132 28.5,-132 28.5,-132 22.5,-132 16.5,-126 16.5,-120 16.5,-120 16.5,-108 16.5,-108 16.5,-102 22.5,-96 28.5,-96 28.5,-96 183.5,-96 183.5,-96 189.5,-96 195.5,-102 195.5,-108 195.5,-108 195.5,-120 195.5,-120 195.5,-126 189.5,-132 183.5,-132"/>
<text text-anchor="middle" x="106" y="-111.5" font-family="Helvetica,sans-Serif" font-size="10.00">24. AI&#45;Assisted Development [AI]</text>
</g>
<!-- p1&#45;&gt;p24 -->
<g id="edge2" class="edge">
<title>p1&#45;&gt;p24</title>
<path fill="none" stroke="#666666" stroke-dasharray="5,2" d="M106,-175.69C106,-164.98 106,-151.08 106,-139.29"/>
<polygon fill="#666666" stroke="#666666" points="108.45,-139.26 106,-132.26 103.55,-139.26 108.45,-139.26"/>
</g>
<!-- p28 -->
<g id="node3" class="node">
<title>p28</title>
<path fill="#006644" fill-opacity="0.200000" stroke="#006644" d="M179,-52C179,-52 33,-52 33,-52 27,-52 21,-46 21,-40 21,-40 21,-28 21,-28 21,-22 27,-16 33,-16 33,-16 179,-16 179,-16 185,-16 191,-22 191,-28 191,-28 191,-40 191,-40 191,-46 185,-52 179,-52"/>
<text text-anchor="middle" x="106" y="-31.5" font-family="Helvetica,sans-Serif" font-size="10.00">28. Deployment Pipeline ** [AI]</text>
</g>
<!-- p24&#45;&gt;p28 -->
<g id="edge1" class="edge">
<title>p24&#45;&gt;p28</title>
<path fill="none" stroke="#666666" d="M106,-95.69C106,-84.98 106,-71.08 106,-59.29"/>
<polygon fill="#666666" stroke="#666666" points="108.45,-59.26 106,-52.26 103.55,-59.26 108.45,-59.26"/>
</g>
</g>
</svg>
